<svg preserveAspectRatio="none" width="100%" height="100%" overflow="visible" style="display: block;" viewBox="0 0 16.1484 16.1406" fill="none" xmlns="http://www.w3.org/2000/svg">
<path id="&#244;&#128;&#133;&#180;" d="M8.07031 16.1406C6.95573 16.1406 5.91146 15.9297 4.9375 15.5078C3.96354 15.0911 3.10677 14.513 2.36719 13.7734C1.6276 13.0391 1.04688 12.1849 0.625 11.2109C0.208333 10.2318 0 9.1849 0 8.07031C0 6.95573 0.208333 5.91146 0.625 4.9375C1.04688 3.95833 1.6276 3.09896 2.36719 2.35938C3.10677 1.61979 3.96354 1.04167 4.9375 0.625C5.91146 0.208333 6.95573 0 8.07031 0C9.1849 0 10.2292 0.208333 11.2031 0.625C12.1823 1.04167 13.0417 1.61979 13.7812 2.35938C14.5208 3.09896 15.099 3.95833 15.5156 4.9375C15.9375 5.91146 16.1484 6.95573 16.1484 8.07031C16.1484 9.1849 15.9375 10.2318 15.5156 11.2109C15.099 12.1849 14.5208 13.0391 13.7812 13.7734C13.0417 14.513 12.1823 15.0911 11.2031 15.5078C10.2292 15.9297 9.1849 16.1406 8.07031 16.1406ZM8.07031 14.5469C8.96615 14.5469 9.80469 14.3776 10.5859 14.0391C11.3672 13.7057 12.0547 13.2422 12.6484 12.6484C13.2474 12.0547 13.7135 11.3672 14.0469 10.5859C14.3802 9.80469 14.5469 8.96615 14.5469 8.07031C14.5469 7.17448 14.3802 6.33594 14.0469 5.55469C13.7135 4.76823 13.2474 4.08073 12.6484 3.49219C12.0547 2.89844 11.3672 2.4349 10.5859 2.10156C9.80469 1.76302 8.96615 1.59375 8.07031 1.59375C7.17969 1.59375 6.34115 1.76302 5.55469 2.10156C4.77344 2.4349 4.08594 2.89844 3.49219 3.49219C2.89844 4.08073 2.43229 4.76823 2.09375 5.55469C1.76042 6.33594 1.59375 7.17448 1.59375 8.07031C1.59375 8.96615 1.76042 9.80469 2.09375 10.5859C2.43229 11.3672 2.89844 12.0547 3.49219 12.6484C4.08594 13.2422 4.77344 13.7057 5.55469 14.0391C6.34115 14.3776 7.17969 14.5469 8.07031 14.5469ZM6.70312 12.3594C6.52604 12.3594 6.3776 12.3047 6.25781 12.1953C6.14323 12.0807 6.08594 11.9375 6.08594 11.7656C6.08594 11.5938 6.14323 11.4531 6.25781 11.3438C6.3776 11.2292 6.52604 11.1719 6.70312 11.1719H7.63281V7.90625H6.84375C6.66667 7.90625 6.51823 7.85156 6.39844 7.74219C6.27865 7.6276 6.21875 7.48438 6.21875 7.3125C6.21875 7.14583 6.27865 7.00521 6.39844 6.89062C6.51823 6.77604 6.66667 6.71875 6.84375 6.71875H8.3125C8.53125 6.71875 8.69531 6.78906 8.80469 6.92969C8.91927 7.0651 8.97656 7.25 8.97656 7.48438V11.1719H9.84375C10.0208 11.1719 10.1667 11.2292 10.2812 11.3438C10.401 11.4531 10.4609 11.5938 10.4609 11.7656C10.4609 11.9375 10.401 12.0807 10.2812 12.1953C10.1667 12.3047 10.0208 12.3594 9.84375 12.3594H6.70312ZM8.02344 5.50781C7.73177 5.50781 7.48177 5.40625 7.27344 5.20312C7.07031 4.99479 6.96875 4.74479 6.96875 4.45312C6.96875 4.15625 7.07031 3.90625 7.27344 3.70312C7.48177 3.49479 7.73177 3.39062 8.02344 3.39062C8.3151 3.39062 8.5625 3.49479 8.76562 3.70312C8.97396 3.90625 9.07812 4.15625 9.07812 4.45312C9.07812 4.74479 8.97396 4.99479 8.76562 5.20312C8.5625 5.40625 8.3151 5.50781 8.02344 5.50781Z" fill="var(--fill-0, #9B9B9B)"/>
</svg>
